<?xml version="1.0" encoding="utf-8"?>
<!-- Generator: Adobe Illustrator 24.1.0, SVG Export Plug-In . SVG Version: 6.00 Build 0)  -->
<svg version="1.1" id="Layer_1" xmlns="http://www.w3.org/2000/svg" xmlns:xlink="http://www.w3.org/1999/xlink" x="0px" y="0px"
	 viewBox="0 0 520 200" style="enable-background:new 0 0 520 200;" xml:space="preserve">
<style type="text/css">
	.st0{fill:none;}
	.st1{fill:#0072BC;}
	.st2{fill:#15BEF0;}
	.st3{fill:#9ECF7C;}
	.st4{fill:#EE3350;}
	.st5{fill:#FAA41A;}
	.st6{enable-background:new    ;}
</style>
<g id="Layer_2_1_">
	<rect class="st0" width="520" height="200"/>
</g>
<g id="Layer_1_1_">
	<path class="st1" d="M374.3,81L374.3,81z"/>
	<path class="st1" d="M247.9,65.3h-13.3l-9.7,36.4h-9.6L227,57.9h27.3c0,0,8.3-0.5,7,7L257,81.2c0,0-0.6,7-9.2,7H233l1.7-7.1h9.9
		c0,0,3.1,0.6,4.3-3.7s2.2-9.2,2.2-9.2S251.9,65.3,247.9,65.3"/>
	<path class="st1" d="M268.3,57.9l-8.1,30.3h9.8l5-18.8c0,0,1.2-3.9,4.9-3.9h12.8l2-7.4h-8.9c0,0-6.3-0.2-8.8,3.6
		c0.9-3.7,1-3.7,1-3.7L268.3,57.9z"/>
	<polygon class="st1" points="299.8,57.9 309.5,57.9 301.4,88.1 291.6,88.1 	"/>
	<polygon class="st1" points="395.8,48.2 405.5,48.2 394.8,88.1 385,88.1 	"/>
	<path class="st1" d="M308.4,81.2l4.4-16.2c0,0,1.5-7.1,10-7.1h22.7l-1.9,7.1h-17.6c0,0-3.8-0.6-5,3.8s-2.2,9.2-2.2,9.2
		s-0.9,2.8,3.1,2.8h17.4l-2,7.4h-21.9C315.6,88.2,307,88.7,308.4,81.2"/>
	<path class="st1" d="M379,57.9h-20.2c-8.5,0-10,7.1-10,7.1l-4.4,16.2c-1.7,6.5,7.2,7,7.2,7h6.1c0,0,5.6-0.1,14.2-0.1s10-7.1,10-7.1
		l4.4-16.2C387.6,57.4,379,57.9,379,57.9 M375.8,67.9c0,0-1.3,4.8-2.5,9.2c-0.8,3-1.5,3.7-4.4,3.7h-0.8L358,80.8
		c-4,0-3.1-2.9-3.1-2.9s0.9-4.8,2.1-9.2c0.5-2,2.2-3.5,4.2-3.7c0.2,0,0.4,0,0.6,0h10.8C376.6,65,375.8,67.9,375.8,67.9L375.8,67.9z"
		/>
	<path class="st1" d="M361.9,81.4L361.9,81.4z"/>
	<polygon class="st2" points="129.7,54.2 117.1,54.2 136,73.1 117.1,92 129.7,92 148.6,73.1 148.6,73.1 	"/>
	<polygon class="st3" points="186.4,54.2 199,54.2 180.1,73.1 199,92 186.4,92 167.5,73.1 167.5,73.1 	"/>
	<polygon class="st4" points="177,44.7 177,32.1 158.1,51 139.1,32.1 139.1,44.7 158.1,63.7 158.1,63.7 	"/>
	<polygon class="st5" points="177,101.5 177,114.1 158.1,95.2 139.1,114.1 139.1,101.5 158.1,82.6 158.1,82.6 	"/>
	<polygon class="st1" points="164.7,73.1 158.1,79.8 151.4,73.1 158.1,66.4 	"/>
	<g class="st6">
		<path class="st1" d="M33,141.2h8.5c5.2,0,6.6,1.2,5.5,6.6c-1.2,5.4-3.2,6.4-8.2,6.4h-4.8l-1.3,6.2h-3.7L33,141.2z M39.4,151
			c2.6-0.1,3.3-0.5,3.8-3.2c0.6-2.7,0.3-3.5-2.4-3.5H36l-1.4,6.7H39.4z"/>
	</g>
	<g class="st6">
		<path class="st1" d="M52.4,154.1l-1.4,6.4h-3.7l4.1-19.2h9.8c4.2,0.1,5.5,1.4,4.6,5.8c-0.6,2.8-1.2,4.9-4.6,5.4l0,0.1
			c2.6,0.2,2.9,1.6,2.3,4.4l-0.8,3.6h-3.7l0.8-3.6c0.3-1.6-0.1-2.7-1.8-2.8H52.4z M57.9,150.9c2.7,0,3.5-0.5,4.1-3.4
			c0.6-2.7,0.2-3.2-2.5-3.2h-5.1l-1.4,6.6H57.9z"/>
	</g>
	<g class="st6">
		<path class="st1" d="M70.3,160.4h-3.7l4.1-19.2h3.7L70.3,160.4z"/>
	</g>
	<g class="st6">
		<path class="st1" d="M88.5,147.6l0.2-1.1c0.5-2.2-0.4-2.4-3.6-2.4c-3.7,0-4.5,0.6-5.3,4.4l-0.9,4.3c-0.8,3.8-0.5,4.6,3.4,4.6
			c3,0,4.3-0.1,4.9-2.8l0.2-1.1h3.7l-0.3,1.3c-1.2,5.8-4.4,5.6-9.2,5.8c-6.8,0.3-7.6-2-6.4-7.6l0.9-4.4c1.3-6.2,4-7.5,9.7-7.5
			c4.8,0,7.5,0,6.6,5.5l-0.2,1.1H88.5z"/>
	</g>
	<g class="st6">
		<path class="st1" d="M111.2,148.1l-1.1,5.2c-1.3,6.2-4,7.3-9.8,7.3c-6,0-7.9-1-6.6-7.3l1.1-5.2c1.3-6,3.5-7,9.7-7
			C110,141,112.5,141.9,111.2,148.1z M98.5,148.1l-1.1,5.2c-0.8,3.8-0.2,4.2,3.5,4.2c3.4,0,4.6-0.5,5.4-4.2l1.1-5.2
			c0.8-3.6-0.4-3.9-3.7-3.9C99.9,144.2,99.3,145,98.5,148.1z"/>
	</g>
	<g class="st6">
		<path class="st1" d="M116.3,157.3h9l-0.7,3.2h-12.7l4.1-19.2h3.7L116.3,157.3z"/>
	</g>
	<g class="st6">
		<path class="st1" d="M153.3,150.8l-0.9,4.2c-0.9,4.5-3.2,5.6-7.6,5.6h-2.1c-5.1,0-7.2-1-5.9-6.9l1.3-6c1.1-5.2,3.8-6.7,7.1-6.7
			h5.1c2.9,0,4.9,1.2,4.2,4.3l-0.3,1.5h-2.2l0.2-1.1c0.5-2.2-0.3-2.7-3.4-2.7h-2.7c-4.2,0-5,0.8-5.9,5l-1.3,6.2
			c-0.8,3.7,0.3,4.5,3.9,4.5h2.1c3.8,0,4.7-0.5,5.4-3.5l0.5-2.4h-6.1l0.4-1.9H153.3z"/>
	</g>
	<g class="st6">
		<path class="st1" d="M166.8,141c4.8,0.1,5.9,1.6,4.9,6.5l-1.5,6.9c-0.9,4.5-3,6.2-7.6,6.2h-2.6c-4.6,0-5.9-1.7-5-6.2l1.5-6.9
			c1-4.8,2.8-6.4,7.6-6.5H166.8z M163.8,143c-3.2,0-4.3,0.8-5.1,4.5l-1.5,6.9c-0.8,3.8,0.4,4.3,3.2,4.3h2.6c2.8,0,4.2-0.5,5-4.3
			l1.5-6.9c0.8-3.7,0.1-4.5-3.1-4.5H163.8z"/>
	</g>
	<g class="st6">
		<path class="st1" d="M191.8,141.2l-2.9,13.9c-1.1,5.2-4.3,5.5-8.8,5.5c-4.2,0-7.6-0.1-6.4-5.5l2.9-13.9h2.2l-2.9,13.9
			c-0.7,3.1,0,3.6,4.7,3.6c3.9,0,5.4,0,6.2-3.6l2.9-13.9H191.8z"/>
	</g>
	<g class="st6">
		<path class="st1" d="M194.2,160.4H192l4.1-19.2h8.9c4.2,0,5.7,1.2,4.8,5.5c-0.6,2.7-1.3,4.7-4.5,5.1v0.1c2.1,0.2,2.8,1.4,2.4,3.5
			l-1.1,5.1h-2.2l0.9-4.1c0.5-2.4,0.2-3.6-2.5-3.6h-7L194.2,160.4z M203,150.8c3.4-0.1,4-1.1,4.7-4.3c0.5-2.5,0.4-3.4-3.1-3.4h-6.7
			l-1.6,7.7H203z"/>
	</g>
	<g class="st6">
		<path class="st1" d="M222.3,160.4h-2.2l-3.5-17.6h-0.1l-3.7,17.6h-2.2l4.1-19.2h3.8l3.3,16.5l10.3-16.5h3.8l-4.1,19.2h-2.2
			l3.7-17.6h-0.1L222.3,160.4z"/>
	</g>
	<g class="st6">
		<path class="st1" d="M239.8,149.7h9.8l-0.4,1.8h-9.8l-1.5,7.1h10.2l-0.4,1.9h-12.4l4.1-19.2h12.4l-0.4,1.9h-10.2L239.8,149.7z"/>
	</g>
	<g class="st6">
		<path class="st1" d="M257.8,160.4h-2.2l3.7-17.3h-6.2l0.4-1.9h14.7l-0.4,1.9h-6.2L257.8,160.4z"/>
	</g>
	<g class="st6">
		<path class="st1" d="M279.3,141.2h9.8c3.7,0,4.1,2.5,3.4,5.8c-0.4,1.7-1.3,5.9-6,5.9H279l-1.6,7.5h-2.2L279.3,141.2z M281,143.1
			l-1.7,7.9h5.6c2.9,0,4.4,0,5.2-3.7c0.8-3.7,0.2-4.2-2.5-4.2H281z"/>
	</g>
	<g class="st6">
		<path class="st1" d="M295.3,160.4h-2.2l4.1-19.2h8.9c4.2,0,5.7,1.2,4.8,5.5c-0.6,2.7-1.3,4.7-4.5,5.1v0.1c2.1,0.2,2.8,1.4,2.4,3.5
			l-1.1,5.1h-2.2l0.9-4.1c0.5-2.4,0.2-3.6-2.5-3.6h-7L295.3,160.4z M304,150.8c3.4-0.1,4-1.1,4.7-4.3c0.5-2.5,0.4-3.4-3.1-3.4h-6.7
			l-1.6,7.7H304z"/>
	</g>
	<g class="st6">
		<path class="st1" d="M314,160.4h-2.2l4.1-19.2h2.2L314,160.4z"/>
	</g>
	<g class="st6">
		<path class="st1" d="M337.2,141.2l-10.9,19.2h-3.1l-2.8-19.2h2.3l2.3,17.6h0.1l9.7-17.6H337.2z"/>
	</g>
	<g class="st6">
		<path class="st1" d="M336.8,156.3l-2.4,4.1h-2.3l11.1-19.2h3.1l3.1,19.2h-2.3l-0.6-4.1H336.8z M344.5,143l-6.7,11.6h8.5L344.5,143
			z"/>
	</g>
	<g class="st6">
		<path class="st1" d="M357.3,160.4h-2.2l3.7-17.3h-6.2l0.4-1.9h14.7l-0.4,1.9h-6.2L357.3,160.4z"/>
	</g>
	<g class="st6">
		<path class="st1" d="M369.8,149.7h9.8l-0.4,1.8h-9.8l-1.5,7.1h10.2l-0.4,1.9h-12.4l4.1-19.2h12.4l-0.4,1.9h-10.2L369.8,149.7z"/>
	</g>
	<g class="st6">
		<path class="st1" d="M392.6,158.5h9.8l-0.4,1.9h-12l4.1-19.2h2.2L392.6,158.5z"/>
	</g>
	<g class="st6">
		<path class="st1" d="M407.1,160.4H405l4.1-19.2h2.2L407.1,160.4z"/>
	</g>
	<g class="st6">
		<path class="st1" d="M423.1,160.4h-2.2l-3.5-17.6h-0.1l-3.7,17.6h-2.2l4.1-19.2h3.8l3.3,16.5l10.3-16.5h3.8l-4.1,19.2h-2.2
			l3.7-17.6h-0.1L423.1,160.4z"/>
	</g>
	<g class="st6">
		<path class="st1" d="M439.1,160.4h-2.2l4.1-19.2h2.2L439.1,160.4z"/>
	</g>
	<g class="st6">
		<path class="st1" d="M450.1,160.4h-2.2l3.7-17.3h-6.2l0.4-1.9h14.7l-0.4,1.9h-6.2L450.1,160.4z"/>
	</g>
	<g class="st6">
		<path class="st1" d="M462.6,149.7h9.8l-0.4,1.8h-9.8l-1.5,7.1h10.2l-0.4,1.9h-12.4l4.1-19.2h12.4l-0.4,1.9H464L462.6,149.7z"/>
	</g>
	<g class="st6">
		<path class="st1" d="M477.8,141.2h9.4c2.3,0,6.5,0.3,5,7.4l-1,4.6c-0.4,1.9-1.8,7.2-7.6,7.2h-9.9L477.8,141.2z M483.5,158.5
			c3.9,0,4.9-2.3,5.6-5.7l1.1-5.1c0.2-1.1,0.6-4.6-3.1-4.6h-7.5l-3.3,15.4H483.5z"/>
	</g>
</g>
</svg>
